<?xml version="1.0" encoding="UTF-8" standalone="no"?>
<!DOCTYPE svg PUBLIC "-//W3C//DTD SVG 1.1//EN"
 "http://www.w3.org/Graphics/SVG/1.1/DTD/svg11.dtd">
<!-- Generated by graphviz version 2.40.1 (20161225.0304)
 -->
<!-- Title: G Pages: 1 -->
<svg width="1779pt" height="154pt"
 viewBox="0.00 0.00 1779.25 154.00" xmlns="http://www.w3.org/2000/svg" xmlns:xlink="http://www.w3.org/1999/xlink">
<g id="graph0" class="graph" transform="scale(1 1) rotate(0) translate(21.6 132.4)">
<title>G</title>
<polygon fill="#111111" stroke="transparent" points="-21.6,21.6 -21.6,-132.4 1757.6528,-132.4 1757.6528,21.6 -21.6,21.6"/>
<!-- ../../common/interfaces/index.ts -->
<g id="node1" class="node">
<title>../../common/interfaces/index.ts</title>
<path fill="none" stroke="#c6c5fe" d="M1387.0994,-67.7008C1387.0994,-67.7008 1194.0836,-67.7008 1194.0836,-67.7008 1189.9834,-67.7008 1185.8831,-63.6005 1185.8831,-59.5003 1185.8831,-59.5003 1185.8831,-51.2997 1185.8831,-51.2997 1185.8831,-47.1995 1189.9834,-43.0992 1194.0836,-43.0992 1194.0836,-43.0992 1387.0994,-43.0992 1387.0994,-43.0992 1391.1996,-43.0992 1395.2999,-47.1995 1395.2999,-51.2997 1395.2999,-51.2997 1395.2999,-59.5003 1395.2999,-59.5003 1395.2999,-63.6005 1391.1996,-67.7008 1387.0994,-67.7008"/>
<text text-anchor="middle" x="1290.5915" y="-51.2" font-family="Arial" font-size="14.00" fill="#c6c5fe">../../common/interfaces/index.ts</text>
</g>
<!-- ../../common/interfaces/jwt&#45;payload.interface.ts -->
<g id="node2" class="node">
<title>../../common/interfaces/jwt&#45;payload.interface.ts</title>
<path fill="none" stroke="#cfffac" d="M1727.6561,-67.7008C1727.6561,-67.7008 1439.8423,-67.7008 1439.8423,-67.7008 1435.742,-67.7008 1431.6417,-63.6005 1431.6417,-59.5003 1431.6417,-59.5003 1431.6417,-51.2997 1431.6417,-51.2997 1431.6417,-47.1995 1435.742,-43.0992 1439.8423,-43.0992 1439.8423,-43.0992 1727.6561,-43.0992 1727.6561,-43.0992 1731.7564,-43.0992 1735.8567,-47.1995 1735.8567,-51.2997 1735.8567,-51.2997 1735.8567,-59.5003 1735.8567,-59.5003 1735.8567,-63.6005 1731.7564,-67.7008 1727.6561,-67.7008"/>
<text text-anchor="middle" x="1583.7492" y="-51.2" font-family="Arial" font-size="14.00" fill="#cfffac">../../common/interfaces/jwt&#45;payload.interface.ts</text>
</g>
<!-- ../../common/interfaces/index.ts&#45;&gt;../../common/interfaces/jwt&#45;payload.interface.ts -->
<g id="edge1" class="edge">
<title>../../common/interfaces/index.ts&#45;&gt;../../common/interfaces/jwt&#45;payload.interface.ts</title>
<path fill="none" stroke="#757575" d="M1395.6001,-55.4C1403.9842,-55.4 1412.5662,-55.4 1421.2232,-55.4"/>
<polygon fill="#757575" stroke="#757575" points="1421.413,-58.9001 1431.4129,-55.4 1421.4129,-51.9001 1421.413,-58.9001"/>
</g>
<!-- ../../common/utils/objects/assign&#45;constructable.ts -->
<g id="node3" class="node">
<title>../../common/utils/objects/assign&#45;constructable.ts</title>
<path fill="none" stroke="#c6c5fe" d="M949.5215,-87.7008C949.5215,-87.7008 648.8105,-87.7008 648.8105,-87.7008 644.7103,-87.7008 640.61,-83.6005 640.61,-79.5003 640.61,-79.5003 640.61,-71.2997 640.61,-71.2997 640.61,-67.1995 644.7103,-63.0992 648.8105,-63.0992 648.8105,-63.0992 949.5215,-63.0992 949.5215,-63.0992 953.6217,-63.0992 957.722,-67.1995 957.722,-71.2997 957.722,-71.2997 957.722,-79.5003 957.722,-79.5003 957.722,-83.6005 953.6217,-87.7008 949.5215,-87.7008"/>
<text text-anchor="middle" x="799.166" y="-71.2" font-family="Arial" font-size="14.00" fill="#c6c5fe">../../common/utils/objects/assign&#45;constructable.ts</text>
</g>
<!-- app/interfaces/index.ts -->
<g id="node4" class="node">
<title>app/interfaces/index.ts</title>
<path fill="none" stroke="#c6c5fe" d="M1141.5586,-67.7008C1141.5586,-67.7008 1001.8728,-67.7008 1001.8728,-67.7008 997.7726,-67.7008 993.6723,-63.6005 993.6723,-59.5003 993.6723,-59.5003 993.6723,-51.2997 993.6723,-51.2997 993.6723,-47.1995 997.7726,-43.0992 1001.8728,-43.0992 1001.8728,-43.0992 1141.5586,-43.0992 1141.5586,-43.0992 1145.6588,-43.0992 1149.7591,-47.1995 1149.7591,-51.2997 1149.7591,-51.2997 1149.7591,-59.5003 1149.7591,-59.5003 1149.7591,-63.6005 1145.6588,-67.7008 1141.5586,-67.7008"/>
<text text-anchor="middle" x="1071.7157" y="-51.2" font-family="Arial" font-size="14.00" fill="#c6c5fe">app/interfaces/index.ts</text>
</g>
<!-- ../../common/utils/objects/assign&#45;constructable.ts&#45;&gt;app/interfaces/index.ts -->
<g id="edge2" class="edge">
<title>../../common/utils/objects/assign&#45;constructable.ts&#45;&gt;app/interfaces/index.ts</title>
<path fill="none" stroke="#757575" d="M957.7093,-63.7659C966.4512,-63.1244 975.0674,-62.4922 983.4088,-61.8801"/>
<polygon fill="#757575" stroke="#757575" points="983.72,-65.3667 993.4371,-61.1442 983.2077,-58.3855 983.72,-65.3667"/>
</g>
<!-- app/interfaces/index.ts&#45;&gt;../../common/interfaces/index.ts -->
<g id="edge3" class="edge">
<title>app/interfaces/index.ts&#45;&gt;../../common/interfaces/index.ts</title>
<path fill="none" stroke="#757575" d="M1149.8079,-55.4C1158.1908,-55.4 1166.8416,-55.4 1175.5399,-55.4"/>
<polygon fill="#757575" stroke="#757575" points="1175.7594,-58.9001 1185.7594,-55.4 1175.7594,-51.9001 1175.7594,-58.9001"/>
</g>
<!-- app/modules/app&#45;routing.module.ts -->
<g id="node5" class="node">
<title>app/modules/app&#45;routing.module.ts</title>
<path fill="none" stroke="#cfffac" d="M576.4181,-110.7008C576.4181,-110.7008 357.0333,-110.7008 357.0333,-110.7008 352.933,-110.7008 348.8328,-106.6005 348.8328,-102.5003 348.8328,-102.5003 348.8328,-94.2997 348.8328,-94.2997 348.8328,-90.1995 352.933,-86.0992 357.0333,-86.0992 357.0333,-86.0992 576.4181,-86.0992 576.4181,-86.0992 580.5184,-86.0992 584.6186,-90.1995 584.6186,-94.2997 584.6186,-94.2997 584.6186,-102.5003 584.6186,-102.5003 584.6186,-106.6005 580.5184,-110.7008 576.4181,-110.7008"/>
<text text-anchor="middle" x="466.7257" y="-94.2" font-family="Arial" font-size="14.00" fill="#cfffac">app/modules/app&#45;routing.module.ts</text>
</g>
<!-- app/modules/app.component.ts -->
<g id="node6" class="node">
<title>app/modules/app.component.ts</title>
<path fill="none" stroke="#c6c5fe" d="M564.3184,-67.7008C564.3184,-67.7008 369.133,-67.7008 369.133,-67.7008 365.0328,-67.7008 360.9325,-63.6005 360.9325,-59.5003 360.9325,-59.5003 360.9325,-51.2997 360.9325,-51.2997 360.9325,-47.1995 365.0328,-43.0992 369.133,-43.0992 369.133,-43.0992 564.3184,-43.0992 564.3184,-43.0992 568.4186,-43.0992 572.5189,-47.1995 572.5189,-51.2997 572.5189,-51.2997 572.5189,-59.5003 572.5189,-59.5003 572.5189,-63.6005 568.4186,-67.7008 564.3184,-67.7008"/>
<text text-anchor="middle" x="466.7257" y="-51.2" font-family="Arial" font-size="14.00" fill="#c6c5fe">app/modules/app.component.ts</text>
</g>
<!-- app/modules/app.component.ts&#45;&gt;../../common/utils/objects/assign&#45;constructable.ts -->
<g id="edge4" class="edge">
<title>app/modules/app.component.ts&#45;&gt;../../common/utils/objects/assign&#45;constructable.ts</title>
<path fill="none" stroke="#757575" d="M572.8259,-61.7831C591.1919,-62.888 610.6897,-64.061 630.2374,-65.2371"/>
<polygon fill="#757575" stroke="#757575" points="630.2662,-68.745 640.4584,-65.852 630.6866,-61.7577 630.2662,-68.745"/>
</g>
<!-- app/modules/app.component.ts&#45;&gt;app/interfaces/index.ts -->
<g id="edge5" class="edge">
<title>app/modules/app.component.ts&#45;&gt;app/interfaces/index.ts</title>
<path fill="none" stroke="#757575" d="M572.4892,-54.6947C594.9844,-54.5719 618.5968,-54.4634 640.638,-54.4 781.5512,-53.9949 816.7816,-53.7821 957.694,-54.4 966.0176,-54.4365 974.6829,-54.488 983.3531,-54.5486"/>
<polygon fill="#757575" stroke="#757575" points="983.4877,-58.0495 993.5132,-54.6235 983.5393,-51.0497 983.4877,-58.0495"/>
</g>
<!-- app/modules/app.module.ts -->
<g id="node7" class="node">
<title>app/modules/app.module.ts</title>
<path fill="none" stroke="#c6c5fe" d="M280.7068,-67.7008C280.7068,-67.7008 109.2202,-67.7008 109.2202,-67.7008 105.12,-67.7008 101.0197,-63.6005 101.0197,-59.5003 101.0197,-59.5003 101.0197,-51.2997 101.0197,-51.2997 101.0197,-47.1995 105.12,-43.0992 109.2202,-43.0992 109.2202,-43.0992 280.7068,-43.0992 280.7068,-43.0992 284.807,-43.0992 288.9073,-47.1995 288.9073,-51.2997 288.9073,-51.2997 288.9073,-59.5003 288.9073,-59.5003 288.9073,-63.6005 284.807,-67.7008 280.7068,-67.7008"/>
<text text-anchor="middle" x="194.9635" y="-51.2" font-family="Arial" font-size="14.00" fill="#c6c5fe">app/modules/app.module.ts</text>
</g>
<!-- app/modules/app.module.ts&#45;&gt;app/modules/app&#45;routing.module.ts -->
<g id="edge6" class="edge">
<title>app/modules/app.module.ts&#45;&gt;app/modules/app&#45;routing.module.ts</title>
<path fill="none" stroke="#757575" d="M272.8396,-67.7221C305.9587,-72.9624 344.7374,-79.0982 378.8745,-84.4996"/>
<polygon fill="#757575" stroke="#757575" points="378.414,-87.9702 388.8382,-86.0761 379.5081,-81.0562 378.414,-87.9702"/>
</g>
<!-- app/modules/app.module.ts&#45;&gt;app/modules/app.component.ts -->
<g id="edge7" class="edge">
<title>app/modules/app.module.ts&#45;&gt;app/modules/app.component.ts</title>
<path fill="none" stroke="#757575" d="M289.25,-55.4C309.1436,-55.4 330.3535,-55.4 350.9346,-55.4"/>
<polygon fill="#757575" stroke="#757575" points="350.9791,-58.9001 360.9791,-55.4 350.979,-51.9001 350.9791,-58.9001"/>
</g>
<!-- app/modules/common/common.module.ts -->
<g id="node8" class="node">
<title>app/modules/common/common.module.ts</title>
<path fill="none" stroke="#cfffac" d="M596.3498,-24.7008C596.3498,-24.7008 337.1016,-24.7008 337.1016,-24.7008 333.0013,-24.7008 328.901,-20.6005 328.901,-16.5003 328.901,-16.5003 328.901,-8.2997 328.901,-8.2997 328.901,-4.1995 333.0013,-.0992 337.1016,-.0992 337.1016,-.0992 596.3498,-.0992 596.3498,-.0992 600.4501,-.0992 604.5504,-4.1995 604.5504,-8.2997 604.5504,-8.2997 604.5504,-16.5003 604.5504,-16.5003 604.5504,-20.6005 600.4501,-24.7008 596.3498,-24.7008"/>
<text text-anchor="middle" x="466.7257" y="-8.2" font-family="Arial" font-size="14.00" fill="#cfffac">app/modules/common/common.module.ts</text>
</g>
<!-- app/modules/app.module.ts&#45;&gt;app/modules/common/common.module.ts -->
<g id="edge8" class="edge">
<title>app/modules/app.module.ts&#45;&gt;app/modules/common/common.module.ts</title>
<path fill="none" stroke="#757575" d="M272.8396,-43.0779C305.9587,-37.8376 344.7374,-31.7018 378.8745,-26.3004"/>
<polygon fill="#757575" stroke="#757575" points="379.5081,-29.7438 388.8382,-24.7239 378.414,-22.8298 379.5081,-29.7438"/>
</g>
<!-- environments/environment.ts -->
<g id="node9" class="node">
<title>environments/environment.ts</title>
<path fill="none" stroke="#cfffac" d="M284.463,-24.7008C284.463,-24.7008 105.464,-24.7008 105.464,-24.7008 101.3637,-24.7008 97.2635,-20.6005 97.2635,-16.5003 97.2635,-16.5003 97.2635,-8.2997 97.2635,-8.2997 97.2635,-4.1995 101.3637,-.0992 105.464,-.0992 105.464,-.0992 284.463,-.0992 284.463,-.0992 288.5633,-.0992 292.6635,-4.1995 292.6635,-8.2997 292.6635,-8.2997 292.6635,-16.5003 292.6635,-16.5003 292.6635,-20.6005 288.5633,-24.7008 284.463,-24.7008"/>
<text text-anchor="middle" x="194.9635" y="-8.2" font-family="Arial" font-size="14.00" fill="#cfffac">environments/environment.ts</text>
</g>
<!-- main.ts -->
<g id="node10" class="node">
<title>main.ts</title>
<path fill="none" stroke="#c6c5fe" d="M52.97,-45.7008C52.97,-45.7008 8.1436,-45.7008 8.1436,-45.7008 4.0434,-45.7008 -.0569,-41.6005 -.0569,-37.5003 -.0569,-37.5003 -.0569,-29.2997 -.0569,-29.2997 -.0569,-25.1995 4.0434,-21.0992 8.1436,-21.0992 8.1436,-21.0992 52.97,-21.0992 52.97,-21.0992 57.0702,-21.0992 61.1705,-25.1995 61.1705,-29.2997 61.1705,-29.2997 61.1705,-37.5003 61.1705,-37.5003 61.1705,-41.6005 57.0702,-45.7008 52.97,-45.7008"/>
<text text-anchor="middle" x="30.5568" y="-29.2" font-family="Arial" font-size="14.00" fill="#c6c5fe">main.ts</text>
</g>
<!-- main.ts&#45;&gt;app/modules/app.module.ts -->
<g id="edge9" class="edge">
<title>main.ts&#45;&gt;app/modules/app.module.ts</title>
<path fill="none" stroke="#757575" d="M61.4804,-37.538C70.761,-38.7799 81.4936,-40.2161 92.7597,-41.7236"/>
<polygon fill="#757575" stroke="#757575" points="92.3986,-45.2064 102.7745,-43.0638 93.3271,-38.2683 92.3986,-45.2064"/>
</g>
<!-- main.ts&#45;&gt;environments/environment.ts -->
<g id="edge10" class="edge">
<title>main.ts&#45;&gt;environments/environment.ts</title>
<path fill="none" stroke="#757575" d="M61.4804,-29.4501C69.6427,-28.4075 78.928,-27.2215 88.7116,-25.9718"/>
<polygon fill="#757575" stroke="#757575" points="89.1623,-29.4427 98.6382,-24.7038 88.2753,-22.4991 89.1623,-29.4427"/>
</g>
</g>
</svg>
